<svg width="64" height="64" xmlns="http://www.w3.org/2000/svg">

 <title/>
 <g>
  <title>background</title>
  <rect fill="none" id="canvas_background" height="402" width="582" y="-1" x="-1"/>
 </g>
 <g>
  <title>Layer 1</title>
  <rect stroke="null" fill="#9e9e9e" id="svg_1" x="0" y="0.122826" width="64" transform="rotate(180 31.999999999999996,32.122825622558594) " ry="11.2" rx="11.2" height="64" class="cls-1"/>
  <path fill="#ffffff" id="svg_2" d="m44,56l-24,0a12,12 0 0 1 -12,-12l0,-24a12,12 0 0 1 12,-12l24,0a12,12 0 0 1 12,12l0,24a12,12 0 0 1 -12,12zm-24,-43.2a7.21,7.21 0 0 0 -7.2,7.2l0,24a7.21,7.21 0 0 0 7.2,7.2l24,0a7.21,7.21 0 0 0 7.2,-7.2l0,-24a7.21,7.21 0 0 0 -7.2,-7.2l-24,0z" class="cls-2"/>
  <path fill="#ffffff" id="svg_3" d="m32,45.6a13.6,13.6 0 1 1 13.6,-13.6a13.61,13.61 0 0 1 -13.6,13.6zm0,-22.4a8.8,8.8 0 1 0 8.8,8.8a8.81,8.81 0 0 0 -8.8,-8.8z" class="cls-2"/>
  <circle fill="#ffffff" id="svg_4" r="2.4" cy="19.2" cx="45.6" class="cls-2"/>
 </g>
</svg>