<svg width="64" height="64" xmlns="http://www.w3.org/2000/svg">

 <title/>
 <g>
  <title>background</title>
  <rect fill="none" id="canvas_background" height="402" width="582" y="-1" x="-1"/>
 </g>
 <g>
  <title>Layer 1</title>
  <rect fill="#8e8e8e" id="svg_1" width="64" ry="11.2" rx="11.2" height="64" class="cls-1"/>
  <path fill="#ffffff" id="svg_2" d="m9.62,19.77l7.68,0a0.79,0.79 0 0 1 0.74,0.51c0.85,2.19 4.38,10.76 7.61,11.46c2.4,0 1.55,-11.4 -1.5,-11.4c-0.8,0 1.42,-1.42 1.57,-1.48a16.38,16.38 0 0 1 8.66,0c1.53,0.64 1.79,2.43 1.83,3.95s-1.7,8 0.59,8.7c3,0.92 6.86,-8.49 7.76,-10.8a0.79,0.79 0 0 1 0.74,-0.5l8.55,0a0.8,0.8 0 0 1 0.74,1.11a74.74,74.74 0 0 1 -6.31,11.52a1.59,1.59 0 0 0 0.16,2c2.56,2.74 9.56,10.5 5.56,10.5l-8.63,0a1.57,1.57 0 0 1 -1.18,-0.53c-1.34,-1.48 -5.24,-5.6 -7,-5.27c-1.46,0.27 -1.6,2.75 -1.53,4.37a1.6,1.6 0 0 1 -1.48,1.68c-1.53,0.09 -3.62,0.13 -3.81,0.12c-6.1,-0.39 -9.71,-4.46 -13.16,-9a56.33,56.33 0 0 1 -8.35,-15.88a0.81,0.81 0 0 1 0.76,-1.06z" class="cls-2"/>
 </g>
</svg>